<?xml version="1.0" encoding="UTF-8" standalone="no"?>
<!-- Created with Inkscape (http://www.inkscape.org/) -->

<svg
   width="48"
   height="48"
   viewBox="0 0 48 48"
   version="1.1"
   id="svg1"
   inkscape:version="1.3.2 (091e20ef0f, 2023-11-25, custom)"
   sodipodi:docname="icon.svg"
   xmlns:inkscape="http://www.inkscape.org/namespaces/inkscape"
   xmlns:sodipodi="http://sodipodi.sourceforge.net/DTD/sodipodi-0.dtd"
   xmlns="http://www.w3.org/2000/svg"
   xmlns:svg="http://www.w3.org/2000/svg">
  <sodipodi:namedview
     id="namedview1"
     pagecolor="#505050"
     bordercolor="#ffffff"
     borderopacity="1"
     inkscape:showpageshadow="0"
     inkscape:pageopacity="0"
     inkscape:pagecheckerboard="1"
     inkscape:deskcolor="#505050"
     inkscape:document-units="px"
     inkscape:zoom="12.138666"
     inkscape:cx="26.856327"
     inkscape:cy="17.959139"
     inkscape:window-width="1920"
     inkscape:window-height="1024"
     inkscape:window-x="0"
     inkscape:window-y="24"
     inkscape:window-maximized="1"
     inkscape:current-layer="layer1" />
  <defs
     id="defs1">
    <rect
       x="0.097131229"
       y="0.10174975"
       width="48.023349"
       height="48.008149"
       id="rect1" />
  </defs>
  <g
     inkscape:label="Layer 1"
     inkscape:groupmode="layer"
     id="layer1">
    <path
       id="path1"
       style="fill:#ffffff"
       d="M 23.929688 -0.0703125 A 24.006433 24.006433 0 0 0 -0.078125 23.935547 A 24.006433 24.006433 0 0 0 23.929688 47.943359 A 24.006433 24.006433 0 0 0 47.935547 23.935547 A 24.006433 24.006433 0 0 0 23.929688 -0.0703125 z M 6.1152344 10.6875 L 21.994141 10.6875 L 21.994141 13.089844 L 15.314453 13.089844 L 15.314453 38.695312 L 12.794922 38.695312 L 12.794922 13.089844 L 6.1152344 13.089844 L 6.1152344 10.6875 z M 25.998047 10.6875 L 41.759766 10.6875 L 41.759766 13.089844 L 28.517578 13.089844 L 28.517578 23.5 L 39.240234 23.5 L 39.240234 25.902344 L 28.517578 25.902344 L 28.517578 38.695312 L 25.998047 38.695312 L 25.998047 10.6875 z " />
  </g>
</svg>
