<?xml version="1.0" encoding="UTF-8" standalone="no"?>
<!-- Uploaded to: SVG Repo, www.svgrepo.com, Generator: SVG Repo Mixer Tools -->

<svg
   fill="#000000"
   height="800px"
   width="800px"
   version="1.1"
   id="Capa_1"
   viewBox="0 0 49 49"
   xml:space="preserve"
   sodipodi:docname="youtube-svgrepo-com.svg"
   inkscape:version="1.3.2 (091e20ef0f, 2023-11-25, custom)"
   xmlns:inkscape="http://www.inkscape.org/namespaces/inkscape"
   xmlns:sodipodi="http://sodipodi.sourceforge.net/DTD/sodipodi-0.dtd"
   xmlns="http://www.w3.org/2000/svg"
   xmlns:svg="http://www.w3.org/2000/svg"><defs
   id="defs3" /><sodipodi:namedview
   id="namedview3"
   pagecolor="#505050"
   bordercolor="#ffffff"
   borderopacity="1"
   inkscape:showpageshadow="0"
   inkscape:pageopacity="0"
   inkscape:pagecheckerboard="1"
   inkscape:deskcolor="#505050"
   inkscape:zoom="1.03"
   inkscape:cx="400"
   inkscape:cy="400"
   inkscape:window-width="1920"
   inkscape:window-height="1024"
   inkscape:window-x="0"
   inkscape:window-y="24"
   inkscape:window-maximized="1"
   inkscape:current-layer="Capa_1" />
<g
   id="g3"
   style="fill:#ffffff;fill-opacity:1">
	<g
   id="g2"
   style="fill:#ffffff;fill-opacity:1">
		<path
   d="M39.256,6.5H9.744C4.371,6.5,0,10.885,0,16.274v16.451c0,5.39,4.371,9.774,9.744,9.774h29.512    c5.373,0,9.744-4.385,9.744-9.774V16.274C49,10.885,44.629,6.5,39.256,6.5z M47,32.726c0,4.287-3.474,7.774-7.744,7.774H9.744    C5.474,40.5,2,37.012,2,32.726V16.274C2,11.988,5.474,8.5,9.744,8.5h29.512c4.27,0,7.744,3.488,7.744,7.774V32.726z"
   id="path1"
   style="fill:#ffffff;fill-opacity:1" />
		<path
   d="M33.36,24.138l-13.855-8.115c-0.308-0.18-0.691-0.183-1.002-0.005S18,16.527,18,16.886v16.229    c0,0.358,0.192,0.69,0.502,0.868c0.154,0.088,0.326,0.132,0.498,0.132c0.175,0,0.349-0.046,0.505-0.137l13.855-8.113    c0.306-0.179,0.495-0.508,0.495-0.863S33.667,24.317,33.36,24.138z M20,31.37V18.63l10.876,6.371L20,31.37z"
   id="path2"
   style="fill:#ffffff;fill-opacity:1" />
	</g>
</g>
</svg>
