<?xml version="1.0"?>
<svg width="337" height="163" xmlns="http://www.w3.org/2000/svg">
 <!-- Created with Method Draw - http://github.com/duopixel/Method-Draw/ -->

 <g>
  <title>background</title>
  <rect fill="none" id="canvas_background" height="165" width="339" y="-1" x="-1"/>
  <g display="none" overflow="visible" y="0" x="0" height="100%" width="100%" id="canvasGrid">
   <rect fill="url(#gridpattern)" stroke-width="0" y="0" x="0" height="100%" width="100%"/>
  </g>
 </g>
 <g>
  <title>Layer 1</title>
  <g stroke="null" id="svg_9">
   <path stroke="null" id="svg_5" d="m281.251373,1.172635l0,20.947434l-1.485016,0l0,-20.947434l1.485016,0zm-21.234833,3.934921l8.020416,19.352904l-1.382355,0.568024l-8.013489,-19.352904l1.375427,-0.568024zm-18.127914,11.749986l14.808945,14.808943l-1.047043,1.06073l-14.80896,-14.815826l1.047058,-1.053846zm77.233719,79.341494l-14.80896,-14.808945l1.053894,-1.06073l14.80896,14.808975l-1.053894,1.060699zm12.242676,-17.799454l-19.346069,-8.01355l0.567993,-1.382355l19.346069,8.013565l-0.567993,1.382339zm4.496094,-21.125385l-20.947449,0l0,-1.498657l20.947449,0l0,1.498657zm-3.928101,-21.241653l-19.346069,8.013519l-0.567993,-1.382355l19.346069,-8.013504l0.567993,1.382339zm-11.756775,-18.114273l-14.80896,14.815796l-1.053894,-1.060743l14.80896,-14.808947l1.053894,1.053894zm-17.7995,-12.24269l-8.01355,19.352904l-1.375549,-0.568024l8.01355,-19.352904l1.375549,0.568024zm-21.864441,23.178298c15.274353,0 27.674377,12.393295 27.674377,27.674408c0,8.588367 -3.914307,16.259769 -10.059631,21.337513c-4.311279,-8.34201 -9.874878,-15.931263 -16.451355,-22.50774c-6.583313,-6.576416 -14.158875,-12.146881 -22.50769,-16.45816c5.077728,-6.131607 12.749115,-10.046021 21.344299,-10.046021zm14.494202,113.688175l11.681519,-23.349457c-0.041016,-1.792938 -0.786987,-3.407959 -1.977722,-4.598694c-1.218079,-1.21814 -2.894714,-1.970886 -4.749268,-1.970886l0,0.006897l0,0l-0.006836,0l0,-0.006897c-1.854553,0 -3.538025,0.752747 -4.756104,1.970886c-1.21814,1.21814 -1.970886,2.901581 -1.970886,4.756134l0,0l0,0l0,0.006836l-1.491821,0l0,-0.006836l0,0l0,0c0,-1.854553 -0.752808,-3.544861 -1.977722,-4.756134c-1.21814,-1.21814 -2.901611,-1.970886 -4.749329,-1.970886l0,0.006897l-0.006836,0l0,0l0,-0.006897c-1.854492,0 -3.544739,0.752747 -4.756104,1.970886s-1.977722,2.901581 -1.977722,4.756134l0.006836,0l0,0l0,0.006836l-1.498657,0l0,-0.006836l0,0l0,0c0,-1.854553 -0.752808,-3.544861 -1.970886,-4.756134s-2.90152,-1.970886 -4.756104,-1.970886l0,0.006897l0,0l-0.006836,0l0,-0.006897c-1.854553,0 -3.54483,0.752747 -4.756073,1.970886c-1.183899,1.183899 -1.923035,2.805756 -1.970886,4.591858l11.681519,23.356293l20.009918,0z" fill="#FFC40A"/>
   <path stroke="null" id="svg_6" d="m291.564301,114.40918c-1.224915,-18.470184 -9.218018,-35.092621 -21.529114,-47.410614c-13.406067,-13.399204 -31.917282,-21.693348 -52.358292,-21.693348l0,0.006882l0,0l-0.006836,0l0,-0.006882c-20.440979,0 -38.952209,8.294144 -52.351379,21.693348c-13.241913,13.241867 -21.494904,31.472504 -21.693359,51.619232l13.467621,0c0.205292,-16.437653 6.945953,-31.301392 17.744751,-42.100159c10.969849,-10.962997 26.10733,-17.744724 42.839203,-17.744724l0,0l0.006836,0l0,0l0,0c16.725128,0 31.869385,6.788563 42.839188,17.744724c9.970734,9.977539 16.485565,23.417877 17.580475,38.363678c0.31488,-0.48587 0.677521,-0.937531 1.08136,-1.341278c1.485016,-1.485046 3.54483,-2.402008 5.816742,-2.408844l0,-0.006836l0,0l0.006836,0l0,0.006836c2.265198,0.006836 4.325012,0.923798 5.816895,2.408844c0.253174,0.280609 0.506409,0.561157 0.739075,0.869141m2.696228,29.631561l-18.524811,0l9.265778,18.538513l9.259033,-18.538513z" fill="#EB1A21"/>
   <path stroke="null" id="svg_7" d="m249.778915,132.489166l12.160629,0l0,1.909302c-0.376404,-0.136841 -0.739136,-0.184753 -1.088165,-0.184753l-7.007462,0l0,8.992126l6.829605,0c0.513214,0 0.958099,-0.054749 1.307037,-0.157379l0,1.909241c-0.314758,-0.06842 -0.732178,-0.109467 -1.279694,-0.109467l-6.863785,0l0,9.238525l6.795425,0c0.369446,0 0.814331,-0.068481 1.341217,-0.171112l0,2.073517l-12.201553,0c0.102631,-0.362732 0.150482,-0.732239 0.150482,-1.122253l0,-21.24176c0.006836,-0.396851 -0.047852,-0.773254 -0.143738,-1.135986m-3.312134,0.711731l0,3.182129c-0.999115,-0.855377 -1.923004,-1.457611 -2.744171,-1.792938c-0.828094,-0.335297 -1.786102,-0.506409 -2.860535,-0.506409c-1.58078,0 -2.969971,0.403748 -4.147034,1.231812c-1.177063,0.80069 -2.080383,1.96405 -2.703094,3.47644s-0.937561,3.28476 -0.937561,5.372009c0,2.005066 0.328522,3.798004 0.985443,5.344574c0.643311,1.539795 1.567108,2.737366 2.757843,3.565399c1.204498,0.841736 2.586761,1.259155 4.147064,1.259155c1.067566,0 1.99823,-0.198425 2.812653,-0.561127c0.807495,-0.376373 1.703949,-1.02652 2.689392,-1.950348l0,3.113708c-1.149689,0.547485 -2.148804,0.923828 -3.017944,1.122314c-0.882782,0.184753 -1.909241,0.29422 -3.120483,0.29422c-1.827209,0 -3.449036,-0.266846 -4.872498,-0.800659s-2.627808,-1.307098 -3.61322,-2.367737c-0.985443,-1.067566 -1.724579,-2.354126 -2.217285,-3.873352s-0.739044,-3.264282 -0.739044,-5.2146c0,-1.909302 0.259979,-3.606445 0.793823,-5.077759c0.526886,-1.485016 1.307037,-2.737305 2.354095,-3.770691c1.033325,-1.026489 2.292511,-1.80661 3.763824,-2.326691c1.464478,-0.520111 3.168457,-0.773315 5.105164,-0.773315c1.101746,0 2.073425,0.06842 2.922012,0.239532c0.82811,0.143677 1.724594,0.410583 2.641556,0.814331zm-25.867737,-0.711731l4.181213,0c-0.095795,0.34906 -0.13681,0.732269 -0.13681,1.135986l0,21.24176c0,0.403748 0.041016,0.773254 0.13681,1.122253l-4.181213,0c0.095795,-0.403748 0.143631,-0.786987 0.143631,-1.122253l0,-21.24176c0,-0.342133 -0.047836,-0.732208 -0.143631,-1.135986zm-25.833588,5.413116l-2.716736,17.074066l0,0.143707c0.020508,0.424286 0.03418,0.718597 0.03418,0.86911l-2.114624,0c0.177917,-0.57486 0.29425,-0.937531 0.321594,-1.081238l3.332733,-21.399109l0,-0.348999l0,-0.670654l3.537994,0c0.027435,0.34906 0.068481,0.656982 0.136932,0.910187l6.282104,18.257996l6.302704,-18.367493c0.082153,-0.157379 0.123169,-0.362671 0.123169,-0.602203l0,-0.198486l3.558624,0l0,0.225861l0,0.266907l0,0.307922l3.106812,21.679657c0.013672,0.082123 0.109497,0.41745 0.273773,1.012817l-4.195007,0c0.041107,-0.143677 0.075287,-0.335297 0.075287,-0.520081s-0.020508,-0.321655 -0.041031,-0.41745l-2.456741,-17.546265l-6.008453,17.477814c-0.109497,0.362701 -0.171112,0.64325 -0.171112,0.855377l0,0.15744l-3.312195,0l0,-0.198456c0,-0.266907 -0.047882,-0.479034 -0.143677,-0.670654l-5.926331,-17.217773zm-23.055191,18.086884l0,-2.114594l12.133224,-19.60611l-10.449768,0c-0.451599,0 -1.019623,0.06842 -1.683456,0.157379l0,-1.936676l16.540359,0l0,1.977753l-12.140045,19.619843l10.620789,0c0.643311,0 1.149689,-0.05481 1.526093,-0.136902l0,2.032471l-16.547195,0l0,0.006836zm-13.734512,-22.028625c-2.422485,0 -4.263397,0.855377 -5.515747,2.579895c-1.259186,1.710815 -1.888733,4.222351 -1.888733,7.555054c0,6.95282 2.4841,10.422394 7.43866,10.422394c2.388397,0 4.208679,-0.869141 5.454193,-2.620972c1.259094,-1.738251 1.875061,-4.27713 1.875061,-7.602966c0,-3.40799 -0.615967,-5.974243 -1.861389,-7.712463c-1.25235,-1.751862 -3.086304,-2.620941 -5.502045,-2.620941zm0,-1.813507c1.834045,0 3.469543,0.266876 4.913513,0.800659c1.443878,0.547455 2.655212,1.32077 3.654327,2.367798c0.992279,1.02652 1.745087,2.285706 2.244629,3.784363s0.752716,3.209534 0.752716,5.132446c0,1.909302 -0.253143,3.633881 -0.773224,5.173615c-0.513306,1.526062 -1.266022,2.805756 -2.258392,3.839081c-0.992188,1.012817 -2.210358,1.779236 -3.667908,2.31308c-1.464569,0.533752 -3.106934,0.800659 -4.940979,0.800659c-2.477264,0 -4.584991,-0.479095 -6.30954,-1.416595c-1.731323,-0.937531 -3.024689,-2.340424 -3.907501,-4.181274c-0.875946,-1.847687 -1.313965,-4.092255 -1.313965,-6.733856c0,-1.847656 0.260071,-3.503723 0.780151,-4.975067c0.526978,-1.485016 1.293457,-2.737305 2.299408,-3.784363c1.005951,-1.026489 2.230865,-1.820313 3.654327,-2.340393c1.430237,-0.526947 3.05899,-0.780151 4.872437,-0.780151zm-25.395569,12.708038l0,10.011841c0,0.376343 0.047882,0.745911 0.136841,1.122253l-4.194916,0c0.102661,-0.390076 0.150513,-0.773315 0.150513,-1.122253l0,-21.24176c0,-0.362671 -0.047852,-0.732208 -0.150513,-1.135986l4.194916,0c-0.088959,0.376434 -0.136841,0.745972 -0.136841,1.135986l0,9.286469l7.541321,-9.649139c0.143768,-0.212128 0.280579,-0.465332 0.431183,-0.773315l2.887848,0c-0.218964,0.143707 -0.499542,0.438019 -0.848602,0.841766l-7.192352,9.211121l9.231689,12.509583c0.061646,0.06842 0.109497,0.136871 0.143677,0.184784s0.109589,0.136841 0.184784,0.253204c0.088959,0.123199 0.143768,0.198456 0.164276,0.2258l0.342102,0.266907l-5.029846,0c-0.13681,-0.403748 -0.280579,-0.697998 -0.424255,-0.86911l-7.431824,-10.258148zm-18.504372,-19.804565l-4.003296,5.385681l-2.326782,0l-3.818604,-5.385681l2.655212,0l2.354126,3.873352l2.4841,-3.873352l2.655243,0zm-13.146027,29.49472l0.807495,-2.819489c1.149719,0.999176 2.107819,1.697174 2.860504,2.032532c0.766479,0.376373 1.6698,0.547455 2.710022,0.547455c1.334412,0 2.408813,-0.376404 3.243652,-1.136047c0.828094,-0.759583 1.238678,-1.738159 1.238678,-2.928864c0,-1.334503 -0.568024,-2.422546 -1.690277,-3.236938c-0.396912,-0.29425 -1.532959,-0.896454 -3.421692,-1.806641c-1.368683,-0.656952 -2.449921,-1.293365 -3.25058,-1.936646c-0.800659,-0.64328 -1.375519,-1.334442 -1.751831,-2.087189c-0.369568,-0.745972 -0.561188,-1.601379 -0.561188,-2.566254c0,-0.951202 0.184784,-1.820343 0.568024,-2.621002c0.376404,-0.814362 0.910126,-1.51239 1.594482,-2.073578c0.691162,-0.574799 1.505493,-0.999054 2.443085,-1.320709c0.9375,-0.307953 1.99823,-0.45166 3.161621,-0.45166c1.7724,0 3.592712,0.41748 5.474609,1.272827l-0.739044,2.511536c-0.951263,-0.684326 -1.820374,-1.177032 -2.580017,-1.471313c-0.773193,-0.29425 -1.560181,-0.438019 -2.36084,-0.438019c-1.122375,0 -2.046204,0.335388 -2.778473,0.999115c-0.732208,0.656982 -1.09494,1.485077 -1.09494,2.484192c0,0.656921 0.136932,1.218079 0.403748,1.6698c0.266937,0.465302 0.718628,0.910126 1.355011,1.320709c0.636383,0.424255 1.669769,0.964935 3.086334,1.601318c1.21817,0.561188 2.183075,1.081299 2.887848,1.553467c0.704926,0.492706 1.259186,0.999115 1.662933,1.553406c0.86911,1.108643 1.307159,2.422546 1.307159,3.969147c0,1.09494 -0.260101,2.18985 -0.773315,3.223206s-1.211243,1.868225 -2.080383,2.525177c-1.307037,0.951233 -3.052124,1.430237 -5.2146,1.430237c-1.177063,0 -2.258331,-0.143646 -3.223236,-0.403687c-0.958008,-0.287445 -2.052948,-0.739136 -3.28479,-1.396088zm-24.095337,-16.642944l-2.716827,17.074066l0,0.143707c0.020508,0.424286 0.027435,0.718597 0.027435,0.86911l-2.114624,0c0.184784,-0.57486 0.29425,-0.937531 0.32843,-1.081238l3.332733,-21.399109l0,-0.348999l0,-0.670654l3.531158,0c0.020508,0.34906 0.061646,0.656982 0.136841,0.910187l6.27536,18.257996l6.302734,-18.367493c0.075287,-0.157379 0.116302,-0.362671 0.116302,-0.602203l0,-0.198486l3.551697,0l0,0.225861l0,0.266907l0,0.307922l3.113739,21.679657c0.013672,0.082123 0.109497,0.41745 0.280518,1.012817l-4.201752,0c0.047852,-0.143677 0.068451,-0.335297 0.068451,-0.520081s-0.013763,-0.321655 -0.034271,-0.41745l-2.456757,-17.546265l-5.99469,17.477814c-0.109589,0.362701 -0.171112,0.64325 -0.171112,0.855377l0,0.15744l-3.319031,0l0,-0.198456c0,-0.266907 -0.047882,-0.479034 -0.143677,-0.670654l-5.912659,-17.217773zm-21.41275,11.94162l0,-4.797211c-0.253235,0.15744 -0.526947,0.321594 -0.821198,0.451691c-0.57486,0.198456 -1.553436,0.574799 -2.922119,1.122284c-1.12915,0.417419 -1.957184,0.951202 -2.511475,1.615021c-0.547485,0.670624 -0.821228,1.498688 -0.821228,2.484161c0,0.978546 0.273743,1.751862 0.814362,2.340363c0.547485,0.602234 1.272827,0.896515 2.169342,0.896515c1.135986,0 2.100891,-0.403748 2.90155,-1.204468c0.793854,-0.786987 1.190765,-1.758698 1.190765,-2.908356zm5.905762,3.537994l0,2.018738c-0.923828,0.602264 -1.834015,0.910156 -2.730469,0.910156c-0.875946,0 -1.567139,-0.212128 -2.032471,-0.629547s-0.814362,-1.136017 -1.033325,-2.135162c-0.841736,0.99231 -1.690308,1.683502 -2.559418,2.114624c-0.86911,0.437958 -1.909302,0.656952 -3.113708,0.656952c-1.51239,0 -2.723633,-0.479004 -3.63382,-1.443909c-0.910156,-0.951263 -1.368683,-2.217255 -1.368683,-3.811768c0,-1.96405 0.752808,-3.462738 2.251465,-4.461853c0.622772,-0.41745 1.224976,-0.718567 1.806671,-0.964905c0.581696,-0.2258 1.957153,-0.670624 4.105988,-1.293396c0.875946,-0.280579 1.491821,-0.615906 1.854553,-0.999115c0.369507,-0.390076 0.554291,-0.896454 0.554291,-1.526062c0,-0.52005 -0.143707,-0.992279 -0.424286,-1.389221c-0.280548,-0.417419 -0.67746,-0.718536 -1.183899,-0.9375c-0.513245,-0.22583 -1.09494,-0.335358 -1.745056,-0.335358c-0.889618,0 -1.656097,0.136902 -2.313049,0.403778c-0.663757,0.280579 -1.491821,0.787018 -2.484131,1.539734l-0.554321,-2.367737c1.266052,-0.588593 2.340454,-0.99234 3.223236,-1.204468c0.889648,-0.212128 1.936676,-0.307922 3.141083,-0.307922c1.238678,0 2.299347,0.157379 3.195831,0.492706c0.882782,0.335297 1.560303,0.814331 2.025604,1.457672c0.465393,0.629547 0.698029,1.38913 0.698029,2.271973l0,10.935608c0,1.026459 0.369568,1.553406 1.108643,1.553406c0.280548,-0.013672 0.684326,-0.184784 1.211243,-0.547424zm-29.26889,-28.33139l-4.003326,5.385681l-2.326721,0l-3.818619,-5.385681l2.648392,0l2.354095,3.873352l2.484131,-3.873352l2.662048,0zm-13.146011,29.49472l0.807495,-2.819489c1.149673,0.999176 2.107758,1.697174 2.867355,2.032532c0.766479,0.376373 1.669785,0.547455 2.709961,0.547455c1.334442,0 2.408844,-0.376404 3.236908,-1.136047s1.238647,-1.738159 1.238647,-2.928864c0,-1.334503 -0.568024,-2.422546 -1.683472,-3.236938c-0.396912,-0.29425 -1.532928,-0.896454 -3.421692,-1.806641c-1.368622,-0.656952 -2.449875,-1.293365 -3.25058,-1.936646s-1.382339,-1.334442 -1.758698,-2.087189c-0.369568,-0.745972 -0.561188,-1.601379 -0.561188,-2.566254c0,-0.951202 0.19162,-1.820343 0.568024,-2.621002c0.376404,-0.814362 0.910141,-1.51239 1.594482,-2.073578c0.691177,-0.574799 1.505554,-0.999054 2.443085,-1.320709c0.937531,-0.307953 1.99823,-0.45166 3.161621,-0.45166c1.77243,0 3.592743,0.41748 5.47464,1.272827l-0.739075,2.511536c-0.951202,-0.684326 -1.813477,-1.177032 -2.57309,-1.471313c-0.773285,-0.29425 -1.560272,-0.438019 -2.360931,-0.438019c-1.122314,0 -2.053009,0.335388 -2.778427,0.999115c-0.732193,0.656982 -1.094925,1.485077 -1.094925,2.484192c0,0.656921 0.136871,1.218079 0.403748,1.6698c0.273758,0.465302 0.718567,0.910126 1.361847,1.320709c0.636414,0.424255 1.669769,0.964935 3.086365,1.601318c1.218079,0.561188 2.182983,1.081299 2.887848,1.553467c0.704834,0.492706 1.259186,0.999115 1.662933,1.553406c0.86908,1.108643 1.307068,2.422546 1.307068,3.969147c0,1.09494 -0.26004,2.18985 -0.773285,3.223206c-0.520111,1.026489 -1.211273,1.868225 -2.080353,2.525177c-1.307098,0.951233 -3.052124,1.430237 -5.221466,1.430237c-1.177063,0 -2.251465,-0.143646 -3.223236,-0.403687c-0.964874,-0.287445 -2.059799,-0.739136 -3.291611,-1.396088zm287.638618,-40.095032c-1.225037,-22.624023 -10.908325,-42.996597 -25.936218,-58.024555c-16.109161,-16.109207 -38.356857,-26.07988 -62.931229,-26.07988l0,0l0,0l-0.006836,0l0,0c-24.567535,0 -46.82196,9.970673 -62.931213,26.07988c-15.951752,15.951817 -25.874603,37.918842 -26.073059,62.198994l13.467712,0c0.198456,-20.571045 8.615723,-39.171188 22.124451,-52.679916c13.673004,-13.666126 32.553711,-22.124454 53.412109,-22.124454l0,0l0.006836,0l0,0l0,0c20.858521,0 39.746048,8.458328 53.418961,22.124454c12.673889,12.673828 20.865356,29.836899 21.987671,48.90239c0.314819,-0.465332 0.670593,-0.90332 1.060669,-1.300232c1.478149,-1.484985 3.544861,-2.402008 5.809998,-2.408844l0,-0.006836l0.006836,0l0,0l0,0.006836c2.271973,0 4.331848,0.923859 5.823669,2.408844c0.260071,0.280609 0.526978,0.581696 0.759644,0.90332zm-305.896599,41.538971l0,-2.114594l12.133179,-19.60611l-10.442886,0c-0.458542,0 -1.019669,0.06842 -1.690292,0.157379l0,-1.936676l16.540298,0l0,1.977753l-12.133209,19.619843l10.620819,0c0.636444,0 1.142838,-0.05481 1.51239,-0.136902l0,2.032471l-16.540298,0l0,0.006836z" fill="#004B9C"/>
   <path stroke="null" id="svg_8" d="m276.563721,114.340698c-1.204407,-14.309387 -7.513977,-27.174835 -17.10144,-36.769211c-10.696152,-10.68924 -25.47084,-17.306736 -41.778549,-17.306736l0,0l0,0l-0.006836,0l0,0c-16.314453,0 -31.082367,6.617496 -41.778442,17.313618c-10.531921,10.53186 -17.108383,25.019196 -17.306824,41.039429l13.460876,0c0.205292,-12.311157 5.269318,-23.424713 13.358124,-31.520355c8.259918,-8.253036 19.660858,-13.365021 32.25943,-13.365021l0,0l0.006836,0l0,0l0,0c12.598602,0 24.006439,5.111984 32.25943,13.365021c7.281326,7.281311 12.112717,17.019348 13.152847,27.859131c0.328522,-0.506378 0.704834,-0.992218 1.129181,-1.416534c1.491852,-1.485046 3.544861,-2.402008 5.816833,-2.408844l0,-0.006836l0.006836,0l0,0l0,0.006836c2.272003,0.006836 4.325012,0.923798 5.816833,2.408844c0.246307,0.253204 0.485901,0.520081 0.704865,0.800659" fill="#009C47"/>
  </g>
 </g>
</svg>